<svg width="158" height="46" viewBox="0 0 158 46" fill="none" xmlns="http://www.w3.org/2000/svg">
<path d="M13.0337 3.00025L28.0001 17.9791L42.9664 3.00025C42.9664 3.0001 42.9665 3.00014 42.9664 3.00025L52.9995 42.9995C52.9996 42.9997 52.9997 42.9996 52.9995 42.9995L28.0001 17.9791L3.00056 42.9995C3.00052 42.9997 3.00042 42.9996 3.00056 42.9995L13.0337 3.00025C13.0338 3.0001 13.0336 3.00014 13.0337 3.00025Z" fill="white"/>
<path d="M13.0337 3.00025L28.0001 17.9791M13.0337 3.00025L3.00056 42.9995M13.0337 3.00025C13.0336 3.00014 13.0338 3.0001 13.0337 3.00025ZM28.0001 17.9791L52.9995 42.9995M28.0001 17.9791L3.00056 42.9995M28.0001 17.9791L42.9664 3.00025M52.9995 42.9995L42.9664 3.00025M52.9995 42.9995C52.9997 42.9996 52.9996 42.9997 52.9995 42.9995ZM3.00056 42.9995C3.00042 42.9996 3.00052 42.9997 3.00056 42.9995ZM42.9664 3.00025C42.9665 3.00014 42.9664 3.0001 42.9664 3.00025Z" stroke="white" stroke-width="4.5"/>
<path d="M62.1136 44V26.5454H66.2272V44H62.1136ZM64.1818 24.0682C63.5303 24.0682 62.9697 23.8523 62.5 23.4204C62.0303 22.9811 61.7954 22.4545 61.7954 21.8409C61.7954 21.2197 62.0303 20.6932 62.5 20.2614C62.9697 19.822 63.5303 19.6023 64.1818 19.6023C64.8409 19.6023 65.4015 19.822 65.8636 20.2614C66.3333 20.6932 66.5681 21.2197 66.5681 21.8409C66.5681 22.4545 66.3333 22.9811 65.8636 23.4204C65.4015 23.8523 64.8409 24.0682 64.1818 24.0682Z" fill="white"/>
<path d="M74.571 33.7727V44H70.4573V26.5454H74.3892V29.5114H74.5937C74.9952 28.5341 75.6354 27.7576 76.5142 27.1818C77.4005 26.6061 78.4952 26.3182 79.7983 26.3182C81.0028 26.3182 82.052 26.5757 82.946 27.0909C83.8475 27.6061 84.5445 28.3523 85.0369 29.3295C85.5369 30.3068 85.7831 31.4924 85.7755 32.8864V44H81.6619V33.5227C81.6619 32.3561 81.3589 31.4432 80.7528 30.7841C80.1543 30.125 79.3248 29.7954 78.2642 29.7954C77.5445 29.7954 76.9043 29.9545 76.3437 30.2727C75.7907 30.5833 75.3551 31.0341 75.0369 31.625C74.7263 32.2159 74.571 32.9318 74.571 33.7727Z" fill="white"/>
<path d="M89.9573 44V26.5454H94.071V44H89.9573ZM92.0255 24.0682C91.374 24.0682 90.8134 23.8523 90.3437 23.4204C89.874 22.9811 89.6392 22.4545 89.6392 21.8409C89.6392 21.2197 89.874 20.6932 90.3437 20.2614C90.8134 19.822 91.374 19.6023 92.0255 19.6023C92.6846 19.6023 93.2452 19.822 93.7073 20.2614C94.177 20.6932 94.4119 21.2197 94.4119 21.8409C94.4119 22.4545 94.177 22.9811 93.7073 23.4204C93.2452 23.8523 92.6846 24.0682 92.0255 24.0682Z" fill="white"/>
<path d="M98.3011 44V26.5454H102.233V29.5114H102.437C102.801 28.5114 103.403 27.7311 104.244 27.1704C105.085 26.6023 106.089 26.3182 107.256 26.3182C108.437 26.3182 109.434 26.6061 110.244 27.1818C111.062 27.75 111.638 28.5265 111.972 29.5114H112.153C112.54 28.5417 113.191 27.7689 114.108 27.1932C115.032 26.6098 116.127 26.3182 117.392 26.3182C118.998 26.3182 120.309 26.8257 121.324 27.8409C122.339 28.8561 122.847 30.3371 122.847 32.2841V44H118.722V32.9204C118.722 31.8371 118.434 31.0454 117.858 30.5454C117.282 30.0379 116.578 29.7841 115.744 29.7841C114.752 29.7841 113.975 30.0947 113.415 30.7159C112.862 31.3295 112.585 32.1288 112.585 33.1136V44H108.551V32.75C108.551 31.8485 108.278 31.1288 107.733 30.5909C107.195 30.053 106.49 29.7841 105.619 29.7841C105.028 29.7841 104.49 29.9356 104.006 30.2386C103.521 30.5341 103.134 30.9545 102.847 31.5C102.559 32.0379 102.415 32.6667 102.415 33.3864V44H98.3011Z" fill="white"/>
<path d="M132.043 44.3523C130.937 44.3523 129.94 44.1553 129.054 43.7614C128.175 43.3598 127.478 42.7689 126.963 41.9886C126.455 41.2083 126.202 40.2462 126.202 39.1023C126.202 38.1174 126.383 37.303 126.747 36.6591C127.111 36.0151 127.607 35.5 128.236 35.1136C128.865 34.7273 129.573 34.4356 130.361 34.2386C131.156 34.0341 131.978 33.8864 132.827 33.7954C133.849 33.6894 134.679 33.5947 135.315 33.5114C135.952 33.4204 136.414 33.2841 136.702 33.1023C136.997 32.9129 137.145 32.6212 137.145 32.2273V32.1591C137.145 31.303 136.891 30.6401 136.383 30.1704C135.876 29.7007 135.145 29.4659 134.19 29.4659C133.183 29.4659 132.383 29.6856 131.793 30.125C131.209 30.5644 130.815 31.0833 130.611 31.6818L126.77 31.1364C127.073 30.0757 127.573 29.1894 128.27 28.4773C128.967 27.7576 129.819 27.2197 130.827 26.8636C131.834 26.5 132.948 26.3182 134.168 26.3182C135.008 26.3182 135.846 26.4167 136.679 26.6136C137.512 26.8106 138.274 27.1364 138.963 27.5909C139.652 28.0379 140.205 28.6477 140.622 29.4204C141.046 30.1932 141.258 31.1591 141.258 32.3182V44H137.304V41.6023H137.168C136.918 42.0871 136.565 42.5417 136.111 42.9659C135.664 43.3826 135.099 43.7197 134.418 43.9773C133.743 44.2273 132.952 44.3523 132.043 44.3523ZM133.111 41.3295C133.937 41.3295 134.652 41.1667 135.258 40.8409C135.865 40.5076 136.33 40.0682 136.656 39.5227C136.99 38.9773 137.156 38.3826 137.156 37.7386V35.6818C137.027 35.7879 136.808 35.8864 136.497 35.9773C136.194 36.0682 135.853 36.1477 135.474 36.2159C135.096 36.2841 134.721 36.3447 134.349 36.3977C133.978 36.4508 133.656 36.4962 133.383 36.5341C132.77 36.6174 132.221 36.7538 131.736 36.9432C131.251 37.1326 130.868 37.3977 130.588 37.7386C130.308 38.072 130.168 38.5038 130.168 39.0341C130.168 39.7917 130.444 40.3636 130.997 40.75C131.55 41.1364 132.255 41.3295 133.111 41.3295Z" fill="white"/>
<path d="M145.395 44V26.5454H149.508V44H145.395ZM147.463 24.0682C146.812 24.0682 146.251 23.8523 145.781 23.4204C145.312 22.9811 145.077 22.4545 145.077 21.8409C145.077 21.2197 145.312 20.6932 145.781 20.2614C146.251 19.822 146.812 19.6023 147.463 19.6023C148.122 19.6023 148.683 19.822 149.145 20.2614C149.615 20.6932 149.849 21.2197 149.849 21.8409C149.849 22.4545 149.615 22.9811 149.145 23.4204C148.683 23.8523 148.122 24.0682 147.463 24.0682Z" fill="white"/>
<path d="M157.852 20.7273V44H153.739V20.7273H157.852Z" fill="white"/>
</svg>
