<svg width="155" height="50" viewBox="0 0 155 50" fill="none" xmlns="http://www.w3.org/2000/svg">
<path d="M68.6322 14.3847H72.9871L78.1943 23.8013H78.4022L83.6093 14.3847H87.9642L80.221 27.73V35.6707H76.3754V27.73L68.6322 14.3847Z" fill="white"/>
<path d="M92.3789 35.9929C91.3673 35.9929 90.4561 35.8128 89.6454 35.4525C88.8416 35.0852 88.2042 34.5448 87.733 33.8311C87.2687 33.1174 87.0366 32.2374 87.0366 31.1911C87.0366 30.2903 87.2029 29.5455 87.5355 28.9565C87.8681 28.3675 88.322 27.8963 88.8971 27.543C89.4722 27.1896 90.12 26.9228 90.8407 26.7427C91.5682 26.5556 92.32 26.4205 93.0961 26.3373C94.0315 26.2403 94.7902 26.1537 95.3723 26.0775C95.9543 25.9943 96.377 25.8696 96.6403 25.7033C96.9105 25.5301 97.0456 25.2633 97.0456 24.903V24.8406C97.0456 24.0576 96.8135 23.4514 96.3493 23.0218C95.885 22.5922 95.2163 22.3774 94.3433 22.3774C93.4217 22.3774 92.6907 22.5783 92.1502 22.9802C91.6167 23.3821 91.2564 23.8567 91.0693 24.4041L87.5563 23.9052C87.8335 22.9351 88.2908 22.1244 88.9282 21.4731C89.5657 20.8149 90.3452 20.3229 91.2668 19.9972C92.1884 19.6646 93.2069 19.4983 94.3225 19.4983C95.0916 19.4983 95.8573 19.5884 96.6195 19.7686C97.3817 19.9487 98.0781 20.2467 98.7086 20.6624C99.3391 21.0712 99.845 21.629 100.226 22.3358C100.614 23.0425 100.808 23.926 100.808 24.9861V35.6707H97.1911V33.4777H97.0664C96.8377 33.9211 96.5156 34.3369 96.0998 34.7249C95.691 35.106 95.1748 35.4144 94.5512 35.6499C93.9345 35.8786 93.2104 35.9929 92.3789 35.9929ZM93.3559 33.2282C94.1112 33.2282 94.766 33.0793 95.3203 32.7813C95.8746 32.4764 96.3007 32.0746 96.5987 31.5757C96.9036 31.0768 97.056 30.5328 97.056 29.9439V28.0626C96.9382 28.1596 96.7373 28.2497 96.4532 28.3329C96.176 28.416 95.8642 28.4888 95.5178 28.5511C95.1713 28.6135 94.8283 28.6689 94.4888 28.7174C94.1493 28.7659 93.8548 28.8075 93.6054 28.8422C93.0441 28.9184 92.5417 29.0431 92.0983 29.2163C91.6548 29.3895 91.3049 29.6321 91.0485 29.9439C90.7922 30.2488 90.664 30.6437 90.664 31.1287C90.664 31.8216 90.9169 32.3448 91.4227 32.6982C91.9285 33.0515 92.5729 33.2282 93.3559 33.2282Z" fill="white"/>
<path d="M108.354 26.3165V35.6707H104.591V14.3847H108.271V22.4189H108.458C108.832 21.5182 109.411 20.8079 110.193 20.2882C110.983 19.7616 111.988 19.4983 113.208 19.4983C114.316 19.4983 115.283 19.7305 116.107 20.1947C116.932 20.6589 117.569 21.338 118.02 22.2318C118.477 23.1257 118.706 24.217 118.706 25.5058V35.6707H114.943V26.0879C114.943 25.0139 114.666 24.1789 114.112 23.583C113.564 22.9802 112.795 22.6788 111.804 22.6788C111.139 22.6788 110.543 22.8243 110.017 23.1153C109.497 23.3994 109.088 23.8117 108.79 24.3521C108.499 24.8926 108.354 25.5474 108.354 26.3165Z" fill="white"/>
<path d="M129.505 35.9825C127.946 35.9825 126.595 35.6395 125.451 34.9536C124.308 34.2676 123.421 33.3079 122.79 32.0746C122.167 30.8412 121.855 29.3999 121.855 27.7508C121.855 26.1017 122.167 24.657 122.79 23.4167C123.421 22.1764 124.308 21.2133 125.451 20.5273C126.595 19.8413 127.946 19.4983 129.505 19.4983C131.064 19.4983 132.415 19.8413 133.558 20.5273C134.702 21.2133 135.585 22.1764 136.209 23.4167C136.839 24.657 137.154 26.1017 137.154 27.7508C137.154 29.3999 136.839 30.8412 136.209 32.0746C135.585 33.3079 134.702 34.2676 133.558 34.9536C132.415 35.6395 131.064 35.9825 129.505 35.9825ZM129.526 32.9684C130.371 32.9684 131.078 32.7363 131.646 32.272C132.214 31.8009 132.637 31.1703 132.914 30.3804C133.198 29.5905 133.34 28.7105 133.34 27.7404C133.34 26.7634 133.198 25.88 132.914 25.0901C132.637 24.2932 132.214 23.6592 131.646 23.1881C131.078 22.7169 130.371 22.4813 129.526 22.4813C128.659 22.4813 127.939 22.7169 127.364 23.1881C126.795 23.6592 126.369 24.2932 126.085 25.0901C125.808 25.88 125.67 26.7634 125.67 27.7404C125.67 28.7105 125.808 29.5905 126.085 30.3804C126.369 31.1703 126.795 31.8009 127.364 32.272C127.939 32.7363 128.659 32.9684 129.526 32.9684Z" fill="white"/>
<path d="M147.312 35.9825C145.752 35.9825 144.401 35.6395 143.258 34.9536C142.115 34.2676 141.228 33.3079 140.597 32.0746C139.974 30.8412 139.662 29.3999 139.662 27.7508C139.662 26.1017 139.974 24.657 140.597 23.4167C141.228 22.1764 142.115 21.2133 143.258 20.5273C144.401 19.8413 145.752 19.4983 147.312 19.4983C148.871 19.4983 150.222 19.8413 151.365 20.5273C152.508 21.2133 153.392 22.1764 154.015 23.4167C154.646 24.657 154.961 26.1017 154.961 27.7508C154.961 29.3999 154.646 30.8412 154.015 32.0746C153.392 33.3079 152.508 34.2676 151.365 34.9536C150.222 35.6395 148.871 35.9825 147.312 35.9825ZM147.332 32.9684C148.178 32.9684 148.884 32.7363 149.453 32.272C150.021 31.8009 150.443 31.1703 150.721 30.3804C151.005 29.5905 151.147 28.7105 151.147 27.7404C151.147 26.7634 151.005 25.88 150.721 25.0901C150.443 24.2932 150.021 23.6592 149.453 23.1881C148.884 22.7169 148.178 22.4813 147.332 22.4813C146.466 22.4813 145.746 22.7169 145.17 23.1881C144.602 23.6592 144.176 24.2932 143.892 25.0901C143.615 25.88 143.476 26.7634 143.476 27.7404C143.476 28.7105 143.615 29.5905 143.892 30.3804C144.176 31.1703 144.602 31.8009 145.17 32.272C145.746 32.7363 146.466 32.9684 147.332 32.9684Z" fill="white"/>
<path d="M17.9054 50H7.43243L11.6554 40.0338L0 12.1622H10.6419L16.8919 28.2095L23.1419 12.1622H33.6149L17.9054 50ZM43.4122 25H31.7568L42.2297 0H53.8851" fill="white"/>
<path d="M34.7973 40.2027C38.3424 40.2027 41.2162 37.3289 41.2162 33.7838C41.2162 30.2387 38.3424 27.3649 34.7973 27.3649C31.2522 27.3649 28.3784 30.2387 28.3784 33.7838C28.3784 37.3289 31.2522 40.2027 34.7973 40.2027Z" fill="white"/>
</svg>
