<svg width="143" height="50" viewBox="0 0 143 50" fill="none" xmlns="http://www.w3.org/2000/svg">
<path d="M49 25.5555C49 23.5 48.8332 22 48.4722 20.4445H25V29.7221H38.7777C38.5 32.0278 37 35.5 33.6666 37.8332L33.6199 38.1438L41.0414 43.8931L41.5555 43.9445C46.2777 39.5833 49 33.1666 49 25.5555Z" fill="white"/>
<path d="M25 50C31.7499 50 37.4165 47.7777 41.5555 43.9445L33.6666 37.8332C31.5555 39.3054 28.7221 40.3332 25 40.3332C18.3889 40.3332 12.7779 35.9722 10.7777 29.9445L10.4845 29.9694L2.76752 35.9416L2.6666 36.2221C6.77767 44.3887 15.2221 50 25 50Z" fill="white"/>
<path d="M10.7777 29.9445C10.2499 28.3889 9.94447 26.7221 9.94447 25C9.94447 23.2777 10.2499 21.6111 10.7499 20.0555L10.7359 19.7242L2.92225 13.6561L2.6666 13.7777C0.972233 17.1666 0 20.9722 0 25C0 29.0278 0.972233 32.8332 2.6666 36.2221L10.7777 29.9445Z" fill="white"/>
<path d="M25 9.6666C29.6944 9.6666 32.861 11.6944 34.6666 13.3889L41.7221 6.5C37.3889 2.47223 31.7499 0 25 0C15.2221 0 6.77767 5.61107 2.6666 13.7777L10.7499 20.0555C12.7779 14.0278 18.3889 9.6666 25 9.6666Z" fill="white"/>
<path d="M80.0865 21.2551C79.9126 20.6919 79.6728 20.1878 79.3668 19.7428C79.0678 19.2909 78.7063 18.905 78.2822 18.5852C77.865 18.2653 77.3852 18.0255 76.8429 17.8656C76.3006 17.6987 75.7096 17.6152 75.0699 17.6152C73.9227 17.6152 72.9006 17.9038 72.0037 18.4809C71.1067 19.058 70.401 19.9062 69.8865 21.0257C69.3789 22.1381 69.1252 23.494 69.1252 25.0931C69.1252 26.7062 69.3789 28.0725 69.8865 29.1919C70.3941 30.3113 71.0998 31.163 72.0037 31.7471C72.9076 32.3242 73.9574 32.6127 75.1534 32.6127C76.238 32.6127 77.1767 32.4041 77.9693 31.987C78.7689 31.5698 79.3842 30.9788 79.8153 30.214C80.2464 29.4422 80.4619 28.5383 80.4619 27.5023L81.338 27.6379H75.5392V24.6134H84.2061V27.179C84.2061 29.0076 83.8167 30.5894 83.038 31.9244C82.2592 33.2593 81.1885 34.2884 79.8257 35.0115C78.4629 35.7276 76.8985 36.0857 75.1325 36.0857C73.1648 36.0857 71.437 35.6442 69.9491 34.7612C68.4681 33.8712 67.3104 32.6092 66.4761 30.9753C65.6487 29.3344 65.235 27.3876 65.235 25.1348C65.235 23.4105 65.4783 21.8704 65.9651 20.5146C66.4587 19.1588 67.147 18.0081 68.0301 17.0625C68.9131 16.1099 69.9491 15.3868 71.138 14.8932C72.327 14.3926 73.6202 14.1423 75.0178 14.1423C76.1998 14.1423 77.3018 14.3161 78.3239 14.6637C79.346 15.0044 80.2533 15.4911 81.046 16.1238C81.8455 16.7566 82.5026 17.5075 83.0171 18.3766C83.5316 19.2457 83.8689 20.2052 84.0288 21.2551H80.0865Z" fill="white"/>
<path d="M87.7807 35.7937V19.7741H91.3893V22.4962H91.577C91.9108 21.5784 92.4635 20.8623 93.2353 20.3478C94.0071 19.8263 94.9284 19.5655 95.9991 19.5655C97.0838 19.5655 97.9981 19.8298 98.742 20.3582C99.493 20.8797 100.021 21.5923 100.327 22.4962H100.494C100.849 21.6062 101.447 20.897 102.288 20.3686C103.136 19.8332 104.141 19.5655 105.302 19.5655C106.776 19.5655 107.979 20.0314 108.911 20.9631C109.842 21.8948 110.308 23.2541 110.308 25.041V35.7937H106.522V25.625C106.522 24.6308 106.258 23.9042 105.73 23.4453C105.201 22.9794 104.555 22.7465 103.79 22.7465C102.879 22.7465 102.166 23.0316 101.652 23.6017C101.144 24.1649 100.89 24.8984 100.89 25.8023V35.7937H97.1881V25.4686C97.1881 24.6412 96.9378 23.9807 96.4371 23.487C95.9435 22.9933 95.2969 22.7465 94.4973 22.7465C93.9549 22.7465 93.4613 22.8856 93.0163 23.1637C92.5713 23.4349 92.2167 23.8207 91.9525 24.3214C91.6883 24.815 91.5562 25.3921 91.5562 26.0526V35.7937H87.7807Z" fill="white"/>
<path d="M118.748 36.117C117.733 36.117 116.819 35.9362 116.005 35.5747C115.199 35.2062 114.559 34.6638 114.086 33.9477C113.62 33.2315 113.388 32.3485 113.388 31.2986C113.388 30.3947 113.554 29.6473 113.888 29.0563C114.222 28.4653 114.677 27.9925 115.254 27.6379C115.831 27.2833 116.482 27.0156 117.205 26.8348C117.935 26.6471 118.689 26.5115 119.468 26.4281C120.407 26.3307 121.168 26.2438 121.752 26.1674C122.336 26.0839 122.76 25.9588 123.024 25.7919C123.295 25.6181 123.431 25.3504 123.431 24.9888V24.9263C123.431 24.1406 123.198 23.5322 122.732 23.1011C122.266 22.67 121.595 22.4545 120.719 22.4545C119.795 22.4545 119.061 22.6561 118.519 23.0594C117.983 23.4627 117.622 23.9389 117.434 24.4882L113.909 23.9876C114.187 23.0142 114.646 22.2007 115.286 21.5471C115.925 20.8866 116.708 20.3929 117.632 20.0662C118.557 19.7324 119.579 19.5655 120.699 19.5655C121.47 19.5655 122.239 19.6559 123.003 19.8367C123.768 20.0175 124.467 20.3165 125.1 20.7336C125.732 21.1439 126.24 21.7036 126.622 22.4128C127.012 23.122 127.206 24.0085 127.206 25.0723V35.7937H123.577V33.5931H123.452C123.222 34.0381 122.899 34.4552 122.482 34.8446C122.072 35.227 121.554 35.5364 120.928 35.7728C120.309 36.0023 119.583 36.117 118.748 36.117ZM119.729 33.3428C120.486 33.3428 121.144 33.1933 121.7 32.8943C122.256 32.5884 122.684 32.1851 122.983 31.6845C123.288 31.1839 123.441 30.6381 123.441 30.0471V28.1594C123.323 28.2567 123.122 28.3471 122.837 28.4305C122.558 28.514 122.246 28.587 121.898 28.6496C121.55 28.7121 121.206 28.7678 120.865 28.8164C120.525 28.8651 120.229 28.9068 119.979 28.9416C119.416 29.0181 118.912 29.1432 118.467 29.317C118.022 29.4909 117.671 29.7342 117.413 30.0471C117.156 30.353 117.027 30.7493 117.027 31.236C117.027 31.9313 117.281 32.4563 117.789 32.8109C118.296 33.1655 118.943 33.3428 119.729 33.3428Z" fill="white"/>
<path d="M131.003 35.7937V19.7741H134.778V35.7937H131.003ZM132.901 17.5005C132.303 17.5005 131.788 17.3024 131.357 16.906C130.926 16.5028 130.711 16.0196 130.711 15.4564C130.711 14.8862 130.926 14.403 131.357 14.0067C131.788 13.6034 132.303 13.4018 132.901 13.4018C133.506 13.4018 134.02 13.6034 134.444 14.0067C134.876 14.403 135.091 14.8862 135.091 15.4564C135.091 16.0196 134.876 16.5028 134.444 16.906C134.02 17.3024 133.506 17.5005 132.901 17.5005Z" fill="white"/>
<path d="M142.436 14.4343V35.7937H138.661V14.4343H142.436Z" fill="white"/>
</svg>
