<svg width="210" height="50" viewBox="0 0 210 50" fill="none" xmlns="http://www.w3.org/2000/svg">
<path d="M32.9578 10.6018V20.3821L36.6014 22.5339C36.733 22.5611 36.8692 22.5611 37.0008 22.5339L52.6667 12.6161C52.6553 12.1347 52.4678 11.6718 52.1357 11.3049C51.8036 10.9381 51.3471 10.6898 50.843 10.6018H32.9578Z" fill="white"/>
<path d="M32.9578 24.0304L36.2801 26.1732C36.4356 26.2622 36.6142 26.3092 36.7964 26.3092C36.9785 26.3092 37.1571 26.2622 37.3127 26.1732C36.7422 26.4964 52.6648 16.5696 52.6648 16.5696V34.5446C52.7064 34.9089 52.6626 35.2772 52.5367 35.6239C52.4108 35.9706 52.2057 36.2873 51.9358 36.5518C51.6659 36.8163 51.3377 37.0222 50.9742 37.1552C50.6107 37.2881 50.2207 37.3448 49.8314 37.3214H32.9559V24.0304H32.9578Z" fill="white"/>
<path d="M15.7591 19.5214C15.2071 19.5189 14.6647 19.6567 14.1893 19.9202C13.7139 20.1836 13.3233 20.5629 13.0588 21.0179C12.3364 22.2239 11.9897 23.5964 12.0585 24.9786C11.9834 26.3579 12.3305 27.7286 13.0588 28.9286C13.3222 29.3648 13.7032 29.7283 14.1636 29.9824C14.6239 30.2366 15.1474 30.3725 15.6815 30.3764C16.2155 30.3804 16.7412 30.2523 17.2058 30.0051C17.6704 29.7578 18.0576 29.4001 18.3283 28.9679C19.0486 27.7734 19.3885 26.4099 19.3077 25.0393C19.3901 23.6257 19.0615 22.2177 18.3568 20.9661C18.105 20.5259 17.73 20.1588 17.2722 19.9042C16.8143 19.6496 16.2912 19.5172 15.7591 19.5214Z" fill="white"/>
<path d="M0 5.63393V43.8964L30.9972 50V0L0 5.63393ZM20.7434 31.2339C20.1636 32.0015 19.3925 32.6243 18.4976 33.0479C17.6026 33.4715 16.6109 33.6831 15.6089 33.6643C14.6321 33.6806 13.6656 33.4751 12.7915 33.0653C11.9174 32.6556 11.1617 32.0536 10.5885 31.3107C9.22916 29.5286 8.54916 27.3683 8.6583 25.1786C8.54267 22.8815 9.23496 20.6125 10.6284 18.7214C11.2156 17.9392 11.9987 17.3046 12.9087 16.8736C13.8187 16.4426 14.8277 16.2284 15.8466 16.25C16.8163 16.2317 17.776 16.4373 18.6414 16.8486C19.5068 17.2598 20.2514 17.8643 20.81 18.6089C22.1557 20.4297 22.8242 22.6165 22.7116 24.8304C22.8302 27.1108 22.1378 29.3635 20.7434 31.2339Z" fill="white"/>
<path d="M99.532 25.0337C99.532 27.8251 99.0091 30.2159 97.9634 32.2061C96.9261 34.1879 95.5093 35.7059 93.7131 36.76C91.9253 37.8141 89.8971 38.3412 87.6286 38.3412C85.3601 38.3412 83.3277 37.8141 81.5314 36.76C79.7436 35.6974 78.3269 34.1752 77.2811 32.1935C76.2439 30.2032 75.7252 27.8167 75.7252 25.0337C75.7252 22.2424 76.2439 19.8558 77.2811 17.874C78.3269 15.8838 79.7436 14.3616 81.5314 13.3075C83.3277 12.2533 85.3601 11.7263 87.6286 11.7263C89.8971 11.7263 91.9253 12.2533 93.7131 13.3075C95.5093 14.3616 96.9261 15.8838 97.9634 17.874C99.0091 19.8558 99.532 22.2424 99.532 25.0337ZM94.8136 25.0337C94.8136 23.0688 94.5058 21.4117 93.8902 20.0624C93.283 18.7047 92.4397 17.68 91.3603 16.9885C90.2808 16.2886 89.0369 15.9386 87.6286 15.9386C86.2203 15.9386 84.9764 16.2886 83.8969 16.9885C82.8175 17.68 81.97 18.7047 81.3543 20.0624C80.7472 21.4117 80.4436 23.0688 80.4436 25.0337C80.4436 26.9987 80.7472 28.66 81.3543 30.0177C81.97 31.367 82.8175 32.3916 83.8969 33.0916C84.9764 33.7831 86.2203 34.1289 87.6286 34.1289C89.0369 34.1289 90.2808 33.7831 91.3603 33.0916C92.4397 32.3916 93.283 31.367 93.8902 30.0177C94.5058 28.66 94.8136 26.9987 94.8136 25.0337Z" fill="white"/>
<path d="M116.15 29.8153V18.5571H120.73V37.987H116.29V34.5336H116.087C115.649 35.6215 114.928 36.5112 113.924 37.2027C112.929 37.8942 111.702 38.24 110.243 38.24C108.97 38.24 107.844 37.9575 106.866 37.3925C105.896 36.819 105.137 35.9884 104.589 34.9005C104.041 33.8042 103.766 32.4802 103.766 30.9285V18.5571H108.346V30.2201C108.346 31.4513 108.683 32.4296 109.358 33.1548C110.032 33.8801 110.918 34.2427 112.014 34.2427C112.689 34.2427 113.342 34.0783 113.975 33.7494C114.607 33.4205 115.126 32.9314 115.531 32.282C115.944 31.6242 116.15 30.802 116.15 29.8153Z" fill="white"/>
<path d="M135.141 18.5571V22.099H123.971V18.5571H135.141ZM126.729 13.902H131.308V32.1429C131.308 32.7585 131.401 33.2307 131.586 33.5596C131.78 33.8801 132.033 34.0993 132.345 34.2174C132.657 34.3355 133.003 34.3945 133.383 34.3945C133.669 34.3945 133.931 34.3734 134.167 34.3313C134.411 34.2891 134.597 34.2511 134.723 34.2174L135.495 37.7973C135.25 37.8816 134.9 37.9744 134.445 38.0756C133.998 38.1768 133.45 38.2358 132.801 38.2527C131.654 38.2864 130.621 38.1135 129.701 37.734C128.782 37.3461 128.053 36.7473 127.513 35.9378C126.982 35.1282 126.72 34.1162 126.729 32.9018V13.902Z" fill="white"/>
<path d="M143.967 12.0805V37.987H139.388V12.0805H143.967Z" fill="white"/>
<path d="M157.151 38.3665C155.254 38.3665 153.609 37.9491 152.218 37.1142C150.826 36.2793 149.747 35.1113 148.98 33.6102C148.221 32.1091 147.841 30.355 147.841 28.348C147.841 26.3409 148.221 24.5826 148.98 23.073C149.747 21.5635 150.826 20.3913 152.218 19.5564C153.609 18.7215 155.254 18.3041 157.151 18.3041C159.049 18.3041 160.693 18.7215 162.085 19.5564C163.476 20.3913 164.551 21.5635 165.31 23.073C166.078 24.5826 166.461 26.3409 166.461 28.348C166.461 30.355 166.078 32.1091 165.31 33.6102C164.551 35.1113 163.476 36.2793 162.085 37.1142C160.693 37.9491 159.049 38.3665 157.151 38.3665ZM157.177 34.6981C158.205 34.6981 159.066 34.4156 159.757 33.8506C160.449 33.2771 160.963 32.5097 161.3 31.5483C161.646 30.5869 161.819 29.5159 161.819 28.3353C161.819 27.1462 161.646 26.071 161.3 25.1096C160.963 24.1398 160.449 23.3682 159.757 22.7947C159.066 22.2213 158.205 21.9346 157.177 21.9346C156.122 21.9346 155.245 22.2213 154.545 22.7947C153.854 23.3682 153.335 24.1398 152.99 25.1096C152.652 26.071 152.484 27.1462 152.484 28.3353C152.484 29.5159 152.652 30.5869 152.99 31.5483C153.335 32.5097 153.854 33.2771 154.545 33.8506C155.245 34.4156 156.122 34.6981 157.177 34.6981Z" fill="white"/>
<path d="M178.823 38.3665C176.926 38.3665 175.281 37.9491 173.89 37.1142C172.499 36.2793 171.419 35.1113 170.652 33.6102C169.893 32.1091 169.513 30.355 169.513 28.348C169.513 26.3409 169.893 24.5826 170.652 23.073C171.419 21.5635 172.499 20.3913 173.89 19.5564C175.281 18.7215 176.926 18.3041 178.823 18.3041C180.721 18.3041 182.365 18.7215 183.757 19.5564C185.148 20.3913 186.223 21.5635 186.982 23.073C187.75 24.5826 188.134 26.3409 188.134 28.348C188.134 30.355 187.75 32.1091 186.982 33.6102C186.223 35.1113 185.148 36.2793 183.757 37.1142C182.365 37.9491 180.721 38.3665 178.823 38.3665ZM178.849 34.6981C179.877 34.6981 180.738 34.4156 181.429 33.8506C182.121 33.2771 182.635 32.5097 182.972 31.5483C183.318 30.5869 183.491 29.5159 183.491 28.3353C183.491 27.1462 183.318 26.071 182.972 25.1096C182.635 24.1398 182.121 23.3682 181.429 22.7947C180.738 22.2213 179.877 21.9346 178.849 21.9346C177.795 21.9346 176.917 22.2213 176.218 22.7947C175.526 23.3682 175.007 24.1398 174.662 25.1096C174.324 26.071 174.156 27.1462 174.156 28.3353C174.156 29.5159 174.324 30.5869 174.662 31.5483C175.007 32.5097 175.526 33.2771 176.218 33.8506C176.917 34.4156 177.795 34.6981 178.849 34.6981Z" fill="white"/>
<path d="M196.195 31.8899L196.182 26.362H196.916L203.898 18.5571H209.249L200.66 28.1203H199.711L196.195 31.8899ZM192.02 37.987V12.0805H196.599V37.987H192.02ZM204.214 37.987L197.89 29.1449L200.976 25.9192L209.692 37.987H204.214Z" fill="white"/>
</svg>
